HIERARCHY
ROOT Hips
{
	OFFSET 0.00 0.00 0.00
	CHANNELS 6 Xposition Yposition Zposition Xrotation Yrotation Zrotation
	JOINT LeftUpLeg
	{
		OFFSET 3.34807 0.00000 0.00000
		CHANNELS 3 Xrotation Yrotation Zrotation
		JOINT LeftLeg
		{
			OFFSET 0.00000 -16.98552 0.00000
			CHANNELS 3 Xrotation Yrotation Zrotation
			JOINT LeftFoot
			{
				OFFSET 0.00000 -16.83686 0.00000
				CHANNELS 3 Xrotation Yrotation Zrotation
				JOINT LeftToeBase
				{
					OFFSET 0.00000 -1.59599 5.95633
					CHANNELS 3 Xrotation Yrotation Zrotation
					End Site
					{
						OFFSET 0.00000 0.00000 2.95275
					}
				}
			}
		}
	}
	JOINT RightUpLeg
	{
		OFFSET -3.34807 0.00000 0.00000
		CHANNELS 3 Xrotation Yrotation Zrotation
		JOINT RightLeg
		{
			OFFSET 0.00000 -16.98552 0.00000
			CHANNELS 3 Xrotation Yrotation Zrotation
			JOINT RightFoot
			{
				OFFSET 0.00000 -16.83686 0.00000
				CHANNELS 3 Xrotation Yrotation Zrotation
				JOINT RightToeBase
				{
					OFFSET 0.00000 -1.59599 5.95633
					CHANNELS 3 Xrotation Yrotation Zrotation
					End Site
					{
						OFFSET 0.00000 0.00000 2.95275
					}
				}
			}
		}
	}
	JOINT Spine
	{
		OFFSET 0.00000 0.03937 0.00000
		CHANNELS 3 Xrotation Yrotation Zrotation
		JOINT Spine1
		{
			OFFSET 0.00000 7.93124 0.00000
			CHANNELS 3 Xrotation Yrotation Zrotation
			JOINT Neck
			{
				OFFSET 0.00000 8.48368 0.00000
				CHANNELS 3 Xrotation Yrotation Zrotation
				JOINT Head
				{
					OFFSET 0.00000 6.65077 0.00000
					CHANNELS 3 Xrotation Yrotation Zrotation
					End Site
					{
						OFFSET 0.00000 4.52755 0.00000
					}
				}
			}
			JOINT LeftShoulder
			{
				OFFSET 0.00000 8.48368 0.00000
				CHANNELS 3 Xrotation Yrotation Zrotation
				JOINT LeftArm
				{
					OFFSET 7.74502 -0.00003 0.00000
					CHANNELS 3 Xrotation Yrotation Zrotation
					JOINT LeftForeArm
					{
						OFFSET 12.49824 -0.00005 0.00000
						CHANNELS 3 Xrotation Yrotation Zrotation
						JOINT LeftHand
						{
							OFFSET 9.88337 -0.00004 0.00000
							CHANNELS 3 Xrotation Yrotation Zrotation
							JOINT LeftHandThumb
							{
								OFFSET 0.00000 0.00000 0.00000
								CHANNELS 3 Xrotation Yrotation Zrotation
								End Site
								{
									OFFSET 0.00000 0.00000 3.93700
								}
							}
							JOINT L_Wrist_End
							{
								OFFSET 3.93700 -0.00001 0.00000
								CHANNELS 3 Xrotation Yrotation Zrotation
							}
						}
					}
				}
			}
			JOINT RightShoulder
			{
				OFFSET 0.00000 8.48368 0.00000
				CHANNELS 3 Xrotation Yrotation Zrotation
				JOINT RightArm
				{
					OFFSET -7.74502 -0.00003 0.00000
					CHANNELS 3 Xrotation Yrotation Zrotation
					JOINT RightForeArm
					{
						OFFSET -12.49824 -0.00005 0.00000
						CHANNELS 3 Xrotation Yrotation Zrotation
						JOINT RightHand
						{
							OFFSET -9.88337 -0.00004 0.00000
							CHANNELS 3 Xrotation Yrotation Zrotation
							JOINT RightHandThumb
							{
								OFFSET 0.00000 0.00000 0.00000
								CHANNELS 3 Xrotation Yrotation Zrotation
								End Site
								{
									OFFSET 0.00000 0.00000 3.93700
								}
							}
							JOINT R_Wrist_End
							{
								OFFSET -5.39369 -0.00002 0.00000
								CHANNELS 3 Xrotation Yrotation Zrotation
							}
						}
					}
				}
			}
		}
	}
}
MOTION
Frames: 7
Frame Time: 0.066664
 -80.0313 33.6022 -8.7617 -149.4111 -85.3064 -149.5279 -21.2579 2.2716 2.2552 15.1785 -0.0000 0.0000 2.0856 -5.8640 -15.7385 14.3179 0.0000 -0.0000 -7.0168 -7.3846 -2.1324 55.9999 -0.0000 0.0000 -12.4540 -13.5044 21.4517 -17.3138 0.0000 0.0000 -2.3122 -5.1002 -3.6032 19.5748 -9.0343 -0.4172 -12.1656 11.3600 3.6158 -7.7883 -3.6060 -0.2159 -16.4566 8.1770 27.8893 -52.3961 -10.3175 -88.9217 -0.0003 -52.6241 -0.0001 -23.0422 -48.3783 58.2589 -0.0000 0.0000 -0.0000 -0.0000 0.0000 -0.0000 24.8116 -13.0352 -13.2784 -10.8951 36.7681 93.5106 0.0000 -6.3294 0.0000 92.0903 -71.1528 -92.6655 -0.0000 -0.0000 0.0000 -0.0000 -0.0000 0.0000
 -77.4821 32.5735 -9.1152 -140.2950 -87.5633 -140.9552 -29.9573 -1.3139 2.7416 20.5811 -0.0000 0.0000 6.1683 -5.8409 -17.6553 12.4394 -0.0000 0.0000 -6.5527 -12.2990 0.0663 50.0995 -0.0000 0.0000 -28.4343 -17.5262 19.6309 -5.1712 -0.0000 -0.0000 -1.5657 -3.3407 -2.2594 19.1409 -6.8702 0.2603 -12.1611 9.8862 4.1578 -8.6446 -6.4473 -1.9564 -13.3548 10.3774 23.8841 -42.5333 -18.2096 -97.7427 -0.0002 -37.2512 -0.0001 -27.6960 -36.5003 43.1225 -0.0000 0.0000 -0.0000 -0.0000 0.0000 -0.0000 20.3175 -7.8198 -9.4925 -26.9805 34.2503 96.0458 0.0000 -6.2439 0.0000 79.4757 -77.4693 -94.8392 -0.0000 0.0000 -0.0000 -0.0000 0.0000 -0.0000
 -74.5484 31.7804 -9.2252 -148.1819 -84.6744 -149.4376 -41.5329 -0.9590 5.5326 33.3913 -0.0000 0.0000 18.4463 -7.2368 -26.8928 7.7720 -0.0000 0.0000 -11.7737 -12.8171 -0.0551 53.5661 -0.0000 0.0000 -34.8311 -14.9800 14.9321 1.3916 -0.0000 -0.0000 -0.6548 -1.2862 -1.1557 22.0780 -4.0922 1.4914 -13.1326 9.8849 4.9463 -9.5558 -6.9416 -3.8672 -10.6249 13.6047 21.1017 -28.9466 -22.5232 -104.1056 -0.0000 -6.2379 -0.0000 -92.9852 -6.3143 -22.9211 -0.0000 -0.0000 0.0000 -0.0000 -0.0000 0.0000 14.5634 0.9053 -8.4440 -45.2216 25.0666 89.4782 0.0000 -1.7008 0.0000 65.3694 -82.0332 -102.5755 -0.0000 -0.0000 0.0000 -0.0000 -0.0000 0.0000
 -72.2183 31.8601 -9.0656 -155.5327 -82.0692 -155.7819 -56.8837 -2.1633 6.0608 62.9006 -0.0000 0.0000 11.0034 -7.3104 -30.1814 8.7885 -0.0000 -0.0000 -16.6083 -13.4865 -2.0007 54.6630 -0.0000 0.0000 -33.3646 -11.6483 13.6084 3.8880 0.0000 -0.0000 -0.3679 0.8339 0.6725 23.0538 -2.3983 0.3861 -13.0312 9.8274 5.2005 -10.8862 -6.9426 -6.5067 -5.7814 19.6234 17.7121 -9.6552 -47.4661 -98.1384 -0.0000 -12.5619 -0.0000 -36.3707 -24.7565 17.6965 -0.0000 0.0000 -0.0000 -0.0000 0.0000 -0.0000 9.7288 6.9029 -12.5894 -65.6454 12.0541 83.4963 -0.0000 1.8044 0.0000 64.6388 -81.9824 -105.9374 -0.0000 0.0000 -0.0000 -0.0000 0.0000 -0.0000
 -70.4073 34.1970 -9.0068 -172.3981 -84.4952 -170.3926 -67.4248 0.5595 4.0830 90.1835 -0.0000 0.0000 2.3052 3.1999 -27.5671 7.5778 0.0000 0.0000 -13.6670 -14.3777 -2.4088 36.0866 -0.0000 0.0000 -21.6452 -9.8440 13.7288 5.3202 -0.0000 -0.0000 0.7142 1.9898 0.1634 19.2605 -1.8281 -1.0697 -13.3053 7.0549 3.8794 -11.2356 -9.3509 -3.8007 -3.7485 22.1110 18.7059 19.4519 -61.2229 -83.3987 -0.0000 -10.2440 -0.0000 -18.3315 -38.6968 22.0016 -0.0000 -0.0000 0.0000 -0.0000 -0.0000 0.0000 6.1777 7.2279 -15.8555 -75.3479 12.9164 78.2030 -0.0000 12.9618 0.0000 27.1972 -83.5976 -136.7851 -0.0000 0.0000 -0.0000 -0.0000 0.0000 -0.0000
 -68.5636 36.9625 -8.7319 138.1831 -85.3154 144.2891 -69.9727 1.9240 1.6004 107.2680 -0.0000 0.0000 -1.7636 -1.2940 -23.4730 7.2973 0.0000 -0.0000 -10.6145 -15.6589 -5.9471 15.6768 -0.0000 0.0000 -1.3260 -2.5058 27.9986 -9.5363 -0.0000 0.0000 0.4964 3.8044 1.3967 17.3196 -2.4847 -7.7894 -15.9640 3.7859 3.1457 -8.6254 -11.7510 -3.3614 -0.7793 21.8226 21.8046 36.2604 -46.6339 -76.7734 -0.0000 -12.3586 -0.0000 -17.5720 -35.7718 20.2198 -0.0000 0.0000 -0.0000 -0.0000 0.0000 -0.0000 4.5043 4.6006 -20.0476 -82.5808 14.2950 72.7172 -0.0001 21.2400 0.0000 19.7666 -83.1882 -141.4182 -0.0000 -0.0000 0.0000 -0.0000 -0.0000 0.0000
 -66.7155 38.1397 -8.5877 118.1235 -84.2179 125.0829 -64.6552 -0.4037 2.1444 118.2175 0.0000 0.0000 -4.1090 -0.9474 -21.7146 6.0159 -0.0000 0.0000 -15.4142 -19.6228 -8.7067 23.4695 -0.0000 0.0000 7.0051 -5.6517 20.3863 -3.1794 0.0000 0.0000 -1.1658 4.5919 1.7184 19.4881 -1.9577 -8.8873 -16.8379 3.4358 3.8125 -10.4068 -12.8077 -5.7281 3.3570 23.5291 22.9238 45.0337 -37.5439 -71.9392 -0.0001 -15.2200 -0.0000 -15.0088 -34.9615 11.7936 -0.0000 0.0000 -0.0000 -0.0000 0.0000 -0.0000 3.7209 4.1010 -22.3912 -91.4316 24.3651 62.6782 -0.0001 17.5496 0.0000 55.7727 -83.1477 -107.7174 -0.0000 0.0000 -0.0000 -0.0000 0.0000 -0.0000
